<svg width="243" height="225" viewBox="0 0 243 225" fill="none" xmlns="http://www.w3.org/2000/svg">
<path d="M90.7935 224.843C140.712 224.843 181.179 221.539 181.179 217.464C181.179 213.389 140.712 210.085 90.7935 210.085C40.8748 210.085 0.407715 213.389 0.407715 217.464C0.407715 221.539 40.8748 224.843 90.7935 224.843Z" fill="#E6E7E8"/>
<path d="M241.592 148.19H177.322V200.554H241.592V148.19Z" fill="white"/>
<path d="M241.592 201.072H177.322C177.188 201.072 177.059 201.018 176.964 200.923C176.868 200.828 176.815 200.699 176.815 200.564V148.19C176.815 148.056 176.868 147.926 176.964 147.831C177.059 147.736 177.188 147.683 177.322 147.683H241.592C241.726 147.685 241.854 147.74 241.948 147.834C242.043 147.929 242.097 148.056 242.1 148.19V200.564C242.097 200.698 242.043 200.825 241.948 200.92C241.854 201.015 241.726 201.069 241.592 201.072ZM177.83 200.057H241.085V148.698H177.84L177.83 200.057Z" fill="#D1D3D4"/>
<path d="M241.592 155.427H177.322C177.188 155.427 177.059 155.374 176.964 155.278C176.868 155.183 176.815 155.054 176.815 154.92C176.815 154.785 176.868 154.656 176.964 154.561C177.059 154.466 177.188 154.412 177.322 154.412H241.592C241.727 154.412 241.856 154.466 241.951 154.561C242.046 154.656 242.1 154.785 242.1 154.92C242.097 155.053 242.043 155.181 241.948 155.276C241.854 155.37 241.726 155.425 241.592 155.427Z" fill="#D1D3D4"/>
<path d="M64.5051 50.3544C63.1189 50.4476 61.7359 50.1324 60.527 49.4478C59.3182 48.7631 58.3366 47.7391 57.7037 46.5024C57.0707 45.2657 56.8143 43.8706 56.966 42.4896C57.1176 41.1087 57.6709 39.8025 58.5572 38.7327C54.6799 36.9463 52.6296 32.3585 52.9138 28.1056C53.198 23.8528 55.4411 19.9856 58.2425 16.7173C60.5466 14.0479 63.4393 11.6423 66.9005 10.9826C67.5556 10.9173 68.1944 10.7387 68.7884 10.4548C69.2557 10.126 69.6612 9.71708 69.9861 9.24694C72.5134 6.01924 75.6295 3.05544 79.5271 1.75624C83.4247 0.457043 88.1952 1.19799 90.8037 4.37494C92.1076 3.24295 93.7245 2.53356 95.4405 2.34063C97.1564 2.14771 98.8905 2.48034 100.413 3.29452C101.936 4.1087 103.176 5.36605 103.968 6.90019C104.761 8.43432 105.069 10.1729 104.851 11.8859C107.597 12.2914 110.172 13.4667 112.278 15.2757C114.383 17.0847 115.933 19.4533 116.747 22.107C118.199 27.4459 115.732 33.7186 110.809 36.2459C110.241 36.5403 109.561 36.926 109.581 37.5553C109.637 37.9351 109.807 38.289 110.068 38.5703C111.652 40.8337 110.86 44.1122 109.053 46.1625C107.247 48.2128 104.547 49.2988 101.948 50.3341C102.526 50.9137 102.912 51.6574 103.051 52.4639C103.191 53.2704 103.079 54.1004 102.73 54.8407C101.977 56.3228 100.805 57.5511 99.3602 58.3729C93.7168 62.0168 86.7336 60.88 80.4101 61.0119C74.5739 61.1337 68.7782 57.4087 64.9111 53.1863C64.16 52.3844 63.5611 50.9228 64.5051 50.3544Z" fill="#2B2525"/>
<path d="M87.4034 61.5905C86.3884 61.5905 85.3734 61.5905 84.4396 61.5905C83.1201 61.5905 81.7397 61.5296 80.4405 61.5905C75.1422 61.6818 69.2755 58.7079 64.5456 53.6024C64.2127 53.2686 63.9511 52.8707 63.7767 52.4328C63.6022 51.9948 63.5185 51.526 63.5306 51.0548C63.5249 51.0178 63.5249 50.9801 63.5306 50.9431C62.1641 50.8775 60.8408 50.4428 59.7016 49.6854C58.5623 48.9279 57.6495 47.8759 57.0603 46.6412C56.4711 45.4065 56.2274 44.0352 56.3551 42.6731C56.4828 41.311 56.9772 40.0089 57.7857 38.9052C54.2839 36.9767 52.1017 32.6224 52.4062 28.0752C52.6599 24.1877 54.4971 20.2597 57.8567 16.3824C60.7799 13.0126 63.7031 11.0841 66.809 10.4852L67.1541 10.4243C67.6424 10.4051 68.118 10.263 68.5367 10.011C68.9555 9.75908 69.3038 9.40549 69.5495 8.98304C72.7366 4.92304 75.9339 2.42614 79.3646 1.27919C83.5971 -0.131664 88.2357 0.852884 90.8645 3.66443C92.248 2.59627 93.9115 1.95192 95.6536 1.80935C97.3956 1.66678 99.1417 2.03209 100.68 2.86109C102.219 3.69009 103.485 4.94724 104.324 6.48046C105.163 8.01367 105.54 9.75725 105.409 11.5002C108.152 11.9958 110.706 13.2347 112.793 15.0817C114.879 16.9287 116.419 19.3131 117.244 21.975C118.787 27.6489 116.057 34.155 111.043 36.7027C110.535 36.9564 110.078 37.2406 110.089 37.5451C110.139 37.7557 110.24 37.9509 110.383 38.1135L110.474 38.2455C112.281 40.8033 111.256 44.3862 109.378 46.4568C107.521 48.2799 105.281 49.6667 102.821 50.5168C103.266 51.1819 103.534 51.9488 103.602 52.7458C103.669 53.5428 103.533 54.3439 103.207 55.0742C102.43 56.639 101.204 57.9361 99.6849 58.7992C95.9192 61.2352 91.6562 61.5905 87.4034 61.5905ZM81.5671 60.4943C82.5314 60.4943 83.5058 60.4943 84.4599 60.4943C89.5349 60.5958 94.7621 60.7074 99.0962 57.906C100.462 57.1452 101.568 55.9927 102.273 54.5971C102.588 53.9506 102.694 53.2219 102.576 52.5125C102.457 51.8031 102.121 51.1481 101.613 50.6386C101.547 50.5822 101.496 50.5096 101.466 50.4278C101.436 50.346 101.427 50.2578 101.441 50.1717C101.455 50.0844 101.491 50.0021 101.547 49.9328C101.602 49.8635 101.674 49.8095 101.755 49.7759C104.131 48.8218 106.83 47.7459 108.627 45.7159C110.241 43.9396 111.144 40.8946 109.642 38.7631L109.551 38.6515C109.274 38.3325 109.104 37.9351 109.063 37.5147C109.063 36.4997 110.028 36.0125 110.566 35.7384C115.174 33.3633 117.671 27.4154 116.25 22.178C115.447 19.6326 113.943 17.3649 111.911 15.6344C109.879 13.9039 107.401 12.7807 104.76 12.3934C104.629 12.3733 104.51 12.3025 104.431 12.1963C104.351 12.09 104.316 11.9567 104.334 11.825C104.533 10.2171 104.242 8.58645 103.498 7.14687C102.755 5.70729 101.594 4.52598 100.167 3.75783C98.7405 2.98967 97.1151 2.67052 95.504 2.84222C93.8928 3.01393 92.3712 3.66847 91.1386 4.72004C91.0876 4.7649 91.028 4.79885 90.9634 4.8198C90.8988 4.84074 90.8306 4.84824 90.763 4.84183C90.696 4.83683 90.6308 4.81801 90.5714 4.78657C90.512 4.75513 90.4597 4.71174 90.4179 4.65913C88.1342 1.87803 83.7189 0.863034 79.6995 2.21298C76.4617 3.28888 73.4167 5.68429 70.392 9.53114C70.0336 10.0518 69.583 10.5025 69.0623 10.8608C68.5265 11.146 67.9406 11.3253 67.3368 11.3886L67.012 11.4495C64.1396 12.0077 61.3991 13.8246 58.6281 17.0117C55.4207 20.7164 53.6749 24.4516 53.4313 28.1056C53.137 32.4904 55.3294 36.6519 58.7804 38.2556C58.8505 38.2883 58.9125 38.3362 58.9616 38.3959C59.0108 38.4556 59.046 38.5256 59.0646 38.6007C59.0808 38.6772 59.0792 38.7563 59.0598 38.832C59.0405 38.9077 59.0039 38.9779 58.9529 39.0372C58.1159 40.0263 57.5902 41.2409 57.442 42.5281C57.2938 43.8153 57.5297 45.1176 58.12 46.271C58.7103 47.4245 59.6286 48.3775 60.7593 49.0102C61.89 49.6429 63.1827 49.927 64.4745 49.8266C64.5901 49.8149 64.7062 49.8439 64.8027 49.9088C64.8991 49.9737 64.9697 50.0703 65.0023 50.1819C65.0368 50.2908 65.0335 50.4082 64.993 50.515C64.9525 50.6219 64.8771 50.7119 64.779 50.7706C64.7163 50.8053 64.6632 50.855 64.6242 50.9152C64.5853 50.9754 64.5617 51.0442 64.5557 51.1157C64.573 51.7635 64.8425 52.379 65.3068 52.831C69.7931 57.7233 75.4568 60.5856 80.4202 60.4841L81.5671 60.4943Z" fill="#231F20"/>
<path d="M136.996 199.001C139.321 199.001 156.647 200.879 164.756 204.908C172.866 208.938 174.622 209.252 172.978 214.693C171.334 220.133 157.053 221.473 146.182 219.423C139.18 217.983 132.427 215.528 126.136 212.135L136.996 199.001Z" fill="#0F0D0D"/>
<path d="M156.433 220.874C152.965 220.861 149.506 220.521 146.101 219.859C139.051 218.409 132.251 215.94 125.912 212.531C125.853 212.495 125.802 212.448 125.762 212.393C125.722 212.337 125.694 212.273 125.679 212.206C125.667 212.14 125.67 212.072 125.688 212.007C125.705 211.942 125.737 211.882 125.78 211.831L136.641 198.696C136.681 198.643 136.733 198.599 136.793 198.569C136.853 198.539 136.919 198.524 136.986 198.524H137.088C139.919 198.524 156.839 200.452 164.959 204.482L166.786 205.385C173.293 208.572 175.049 209.445 173.425 214.825C172.399 218.235 165.721 220.874 156.433 220.874ZM126.856 211.993C132.968 215.22 139.505 217.567 146.273 218.966C157.185 220.996 171.029 219.555 172.541 214.561C173.932 209.933 172.927 209.435 166.38 206.228L164.553 205.324C156.809 201.478 140.244 199.519 137.209 199.458L126.856 211.993Z" fill="#231F20"/>
<path d="M139.321 198.95C140.853 199.326 142.187 200.266 143.055 201.584C143.923 202.902 144.26 204.499 144 206.055C143.239 211.831 131.028 212.074 130.328 212.145C129.627 212.216 139.321 198.95 139.321 198.95Z" fill="white"/>
<path d="M130.328 212.47C130.237 212.467 130.149 212.442 130.071 212.396C129.993 212.35 129.928 212.284 129.881 212.206C129.729 211.902 129.486 211.435 138.945 198.636C139 198.561 139.075 198.505 139.162 198.474C139.249 198.443 139.343 198.439 139.433 198.463C139.483 198.463 145.269 199.915 144.508 206.035C143.736 211.912 132.612 212.43 130.389 212.47H130.328ZM139.463 199.448C136.489 203.508 132.064 209.598 130.957 211.526C133.738 211.394 142.884 210.613 143.503 205.913C143.741 204.538 143.465 203.123 142.728 201.939C141.99 200.754 140.843 199.882 139.504 199.488L139.463 199.448Z" fill="#231F20"/>
<path d="M48.8233 212.176C48.4681 212.358 45.149 216.672 30.6751 218.398C16.2012 220.123 10.8319 223.239 7.60416 215.637C4.37646 208.034 6.58916 203.122 13.6942 200.95C20.7992 198.778 40.48 196.981 44.337 200.615C48.194 204.248 48.8233 212.176 48.8233 212.176Z" fill="#0A0707"/>
<path d="M14.7496 220.976C11.1667 220.976 8.86263 219.778 7.17773 215.82C5.49283 211.861 5.23908 208.461 6.46723 205.832C7.60403 203.396 9.99943 201.6 13.5722 200.514C20.2509 198.484 40.5408 196.393 44.6617 200.28C48.61 203.995 49.2393 211.81 49.2698 212.135C49.2745 212.221 49.2563 212.307 49.217 212.384C49.1778 212.46 49.119 212.525 49.0465 212.572L48.9044 212.694C44.7327 216.49 36.7244 218.144 30.7156 218.855C27.5995 219.23 24.9199 219.667 22.5956 220.052C20.0066 220.553 17.3842 220.862 14.7496 220.976ZM33.4865 198.991C26.5338 198.991 18.1093 200.097 13.8666 201.397C10.5374 202.412 8.32468 204.036 7.30968 206.228C6.19318 208.603 6.43678 211.709 8.03033 215.454C10.4156 221.088 13.9376 220.529 22.423 219.139C24.7981 218.753 27.498 218.317 30.6242 217.941C36.4909 217.241 44.3166 215.637 48.3055 212.003C48.1634 210.674 47.2905 204.107 44.0121 200.98C42.5505 199.539 38.3788 198.991 33.4865 198.991Z" fill="black"/>
<path d="M53.4416 209.07C53.4416 209.07 46.8746 214.551 42.4999 213.901C38.1253 213.252 32.0759 210.856 34.5119 206.136C36.9479 201.417 52.6296 198.575 52.6296 198.575L53.4416 209.07Z" fill="white"/>
<path d="M43.2509 214.419C42.9757 214.419 42.7009 214.399 42.4287 214.358C39.1503 213.871 35.1918 212.47 33.923 209.983C33.6098 209.346 33.4615 208.641 33.4916 207.931C33.5218 207.222 33.7294 206.532 34.0956 205.923C36.6128 201.031 51.8987 198.24 52.5483 198.118C52.6122 198.107 52.6777 198.11 52.7406 198.125C52.8035 198.141 52.8625 198.17 52.9137 198.209C52.9651 198.25 53.0078 198.301 53.0392 198.358C53.0706 198.416 53.0901 198.479 53.0964 198.544L53.9084 209.029C53.914 209.103 53.9023 209.178 53.8741 209.246C53.8459 209.315 53.802 209.376 53.746 209.425C53.4821 209.638 47.7067 214.419 43.2509 214.419ZM52.2133 199.133C49.5236 199.661 36.9883 202.33 34.9583 206.35C34.6589 206.827 34.4851 207.372 34.4532 207.935C34.4212 208.498 34.5322 209.059 34.7756 209.567C35.8921 211.729 39.5461 212.988 42.6013 213.445C46.3263 214.003 51.919 209.72 52.9949 208.867L52.2133 199.133Z" fill="#231F20"/>
<path d="M132.327 163.029C132.327 163.029 125.405 190.028 100.142 195.184C74.8785 200.341 61.8053 198.98 52.853 181.928C43.9007 164.876 49.808 154.442 49.808 154.442L129.536 152.859L132.327 163.029Z" fill="#231F20"/>
<path d="M79.304 198.341C67.124 198.341 58.6691 194.099 52.3964 182.162C43.4238 165.06 49.1382 154.625 49.3514 154.189C49.3956 154.112 49.4592 154.048 49.5358 154.004C49.6123 153.959 49.6992 153.936 49.7878 153.935L129.516 152.352C129.631 152.346 129.744 152.38 129.837 152.449C129.93 152.517 129.996 152.616 130.024 152.727L132.784 162.877C132.805 162.964 132.805 163.054 132.784 163.141C132.713 163.415 125.497 190.546 100.203 195.672C92.2148 197.326 85.3026 198.341 79.304 198.341ZM50.1431 154.94C49.3514 156.615 45.3523 166.541 53.2997 181.695C62.384 198.95 75.6297 199.681 99.9897 194.687C123.771 189.836 131.191 165.019 131.749 163.029L129.12 153.377L50.1431 154.94Z" fill="#231F20"/>
<path d="M43.8599 163.273C43.8599 163.273 30.7969 121.049 32.5122 94.5879C34.2276 68.1268 44.0629 67.1829 57.4812 65.6908C63.4393 65.0209 95.1783 60.3215 107.064 74.3082C118.95 88.2949 139.869 153.803 139.869 153.803L43.8599 163.273Z" fill="#4E4FEB"/>
<path d="M91.0065 65.7617L88.9765 79.8905C88.9765 79.8905 84.5308 87.1884 75.6293 83.4938C66.7277 79.7992 66.5552 72.9886 66.5552 72.9886L70.7776 46.8828C70.7776 46.8828 80.1663 38.4583 84.1147 22.3604C84.1147 22.3604 91.9809 36.0832 103.4 39.1688C103.4 39.1688 102.638 50.5672 100.598 57.6316C98.5683 64.4625 91.1486 65.6805 91.0065 65.7617Z" fill="white"/>
<path d="M80.3999 85.037C78.6736 85.0161 76.9688 84.6503 75.3858 83.9611C66.2508 80.1853 66.0072 73.2934 65.9971 72.9991L70.2499 46.8019C70.2705 46.6858 70.3274 46.5792 70.4123 46.4974C70.5037 46.4162 79.73 37.9917 83.6073 22.2389C83.6352 22.1422 83.6901 22.0555 83.7656 21.9889C83.8412 21.9224 83.9342 21.8788 84.0336 21.8634C84.1328 21.8494 84.2339 21.865 84.3243 21.9084C84.4146 21.9517 84.49 22.0208 84.5411 22.107C84.6223 22.2491 92.448 35.6877 103.501 38.6718C103.616 38.7022 103.716 38.7716 103.784 38.868C103.853 38.9643 103.886 39.0816 103.877 39.1996C103.877 39.3112 103.085 50.7401 101.055 57.7741C99.3804 63.5697 93.9502 65.5591 91.4736 66.1681L89.4436 79.962C89.4342 80.0292 89.4136 80.0944 89.3827 80.1548C88.3824 81.6252 87.0454 82.8353 85.4829 83.6845C83.9205 84.5337 82.1778 84.9974 80.3999 85.037ZM71.2649 47.1267L67.0628 73.0701C67.0628 73.2325 67.3673 79.5052 75.8324 83.0273C83.7393 86.3057 88.0124 80.4695 88.4996 79.7082L90.5296 65.6911C90.539 65.6142 90.5671 65.5407 90.6113 65.477C90.6555 65.4133 90.7146 65.3614 90.7834 65.3257C90.8769 65.2714 90.9805 65.2369 91.0879 65.2242C93.2701 64.7065 98.5278 62.91 100.091 57.4899C101.877 51.3085 102.689 41.6457 102.842 39.5447C93.3006 36.7433 86.3783 26.9079 84.3077 23.6498C80.4507 37.941 72.3611 46.0102 71.2649 47.1267Z" fill="#231F20"/>
<path d="M76.2488 47.2786C76.1348 45.9581 75.5932 44.7108 74.706 43.7261C73.8434 42.8414 72.8337 42.1133 71.7219 41.5743C71.1453 41.2177 70.4973 40.9925 69.8239 40.9146C69.3474 40.9192 68.8759 41.0121 68.4333 41.1886C67.3526 41.5333 66.4309 42.2534 65.8349 43.2186C65.4426 44.0374 65.2578 44.9403 65.297 45.8474C65.2569 46.8292 65.3456 47.812 65.5609 48.7706C65.7993 49.7279 66.2264 50.6279 66.8172 51.4179C67.408 52.2079 68.1506 52.8719 69.0015 53.3711C69.8523 53.8703 70.7943 54.1945 71.7721 54.3248C72.75 54.4551 73.744 54.3888 74.6959 54.1298" fill="white"/>
<path d="M72.7673 54.8507C71.001 54.8523 69.2848 54.264 67.8909 53.1791C66.4971 52.0942 65.5055 50.5748 65.0736 48.8622C64.8382 47.8652 64.7426 46.8404 64.7894 45.8172C64.7536 44.8286 64.9591 43.8462 65.3882 42.9549C66.0349 41.8938 67.0391 41.0983 68.2201 40.7117C68.7252 40.5154 69.2616 40.4123 69.8035 40.4072C70.5555 40.4864 71.2802 40.7326 71.9248 41.1279C73.0853 41.6943 74.1394 42.4566 75.0409 43.3812C76.0036 44.4506 76.5915 45.8046 76.7156 47.2382C76.7242 47.3723 76.6802 47.5044 76.5931 47.6067C76.506 47.709 76.3825 47.7734 76.2487 47.7863C76.1152 47.7923 75.9844 47.7474 75.8827 47.6608C75.781 47.5741 75.7159 47.4521 75.7006 47.3194C75.601 46.1117 75.1132 44.9687 74.3101 44.0612C73.4851 43.2234 72.5198 42.5363 71.4579 42.0312C70.9517 41.7067 70.3796 41.4987 69.7832 41.4222C69.372 41.4257 68.9653 41.5084 68.5855 41.6658C67.6268 41.9618 66.8013 42.5828 66.251 43.4218C65.9063 44.1715 65.7462 44.9929 65.7841 45.8172C65.7354 46.7549 65.8209 47.6948 66.0378 48.6084C66.2611 49.4969 66.6588 50.3322 67.2078 51.0656C67.7568 51.7991 68.4461 52.4161 69.2357 52.8807C70.0252 53.3454 70.8993 53.6485 71.807 53.7723C72.7147 53.8962 73.6381 53.8384 74.5232 53.6022C74.6524 53.568 74.7899 53.5861 74.9058 53.6526C75.0217 53.7191 75.1068 53.8287 75.1424 53.9575C75.1592 54.0221 75.163 54.0894 75.1537 54.1556C75.1444 54.2217 75.1222 54.2854 75.0882 54.3429C75.0543 54.4004 75.0093 54.4507 74.9559 54.4908C74.9025 54.5309 74.8417 54.5601 74.777 54.5766C74.1224 54.7575 73.4464 54.8496 72.7673 54.8507Z" fill="#231F20"/>
<path d="M89.0072 43.249C89.0072 43.249 92.9962 51.1153 91.6868 52.2419C90.3775 53.3686 87.231 52.1303 87.231 52.1303" fill="white"/>
<path d="M90.0528 53.2266C89.01 53.1944 87.9803 52.985 87.0078 52.6074C86.9458 52.5828 86.8892 52.5462 86.8414 52.4997C86.7935 52.4532 86.7553 52.3977 86.7289 52.3365C86.7025 52.2752 86.6885 52.2093 86.6875 52.1426C86.6866 52.0759 86.6989 52.0096 86.7236 51.9477C86.7754 51.8241 86.8731 51.7255 86.9962 51.6725C87.1192 51.6195 87.258 51.6163 87.3834 51.6635C88.1243 51.9477 90.4284 52.6074 91.3114 51.8563C91.8494 51.4097 90.5096 47.4106 88.5202 43.4724C88.489 43.4133 88.47 43.3486 88.4644 43.282C88.4587 43.2155 88.4666 43.1484 88.4874 43.085C88.5083 43.0215 88.5417 42.9629 88.5857 42.9126C88.6297 42.8623 88.6833 42.8214 88.7435 42.7924C88.8638 42.7348 89.0016 42.7259 89.1283 42.7675C89.255 42.8091 89.3607 42.898 89.4235 43.0157C90.672 45.4923 93.4328 51.3793 91.9813 52.6277C91.4253 53.0409 90.7451 53.2521 90.0528 53.2266Z" fill="#231F20"/>
<path d="M84.0518 41.471C84.1283 40.5323 83.6469 39.7271 82.9764 39.6725C82.3059 39.6178 81.7004 40.3344 81.6239 41.2731C81.5474 42.2117 82.0289 43.017 82.6993 43.0716C83.3698 43.1263 83.9753 42.4096 84.0518 41.471Z" fill="#231F20"/>
<path d="M96.6267 43.2085C96.6967 42.2693 96.2096 41.4675 95.5388 41.4175C94.8679 41.3676 94.2674 42.0884 94.1975 43.0275C94.1275 43.9667 94.6146 44.7685 95.2854 44.8185C95.9563 44.8685 96.5568 44.1476 96.6267 43.2085Z" fill="#231F20"/>
<path d="M87.9717 59.5198C86.4197 59.5471 84.8841 59.1989 83.4956 58.5048C81.0697 57.2361 79.5168 54.8102 78.8773 51.2983C78.8657 51.2323 78.8673 51.1647 78.8819 51.0993C78.8966 51.0338 78.924 50.972 78.9627 50.9173C79.0014 50.8625 79.0506 50.816 79.1073 50.7804C79.1641 50.7447 79.2274 50.7207 79.2935 50.7096C79.425 50.6886 79.5596 50.719 79.6692 50.7946C79.7789 50.8703 79.8551 50.9852 79.8822 51.1156C80.4506 54.3027 81.831 56.485 83.9422 57.6015C88.2052 59.8345 94.2038 57.1346 94.2647 57.1041C94.3873 57.0492 94.5265 57.0451 94.6521 57.0926C94.7777 57.1402 94.8793 57.2356 94.9346 57.3579C94.9632 57.4183 94.9794 57.4839 94.982 57.5508C94.9847 57.6176 94.9739 57.6842 94.9502 57.7468C94.9265 57.8093 94.8904 57.8664 94.8442 57.9147C94.7979 57.963 94.7424 58.0015 94.6809 58.0278C92.5611 58.9513 90.2832 59.4579 87.9717 59.5198Z" fill="#231F20"/>
<path d="M91.0067 65.7621C91.0067 65.7621 81.8717 66.5132 77.1621 62.7983C77.1621 62.7983 81.1714 75.4858 89.5959 75.4452L91.0067 65.7621Z" fill="#231F20"/>
<path d="M89.5352 75.9527C80.8671 75.9527 76.8274 63.4784 76.6548 62.9506C76.625 62.8465 76.6285 62.7357 76.6649 62.6337C76.7013 62.5318 76.7688 62.4438 76.8578 62.3822C76.9434 62.3155 77.0488 62.2793 77.1573 62.2793C77.2657 62.2793 77.3711 62.3155 77.4567 62.3822C81.9937 65.9245 90.8547 65.2445 90.946 65.2343C91.0216 65.229 91.0974 65.2407 91.1679 65.2685C91.2384 65.2963 91.3017 65.3395 91.3533 65.395C91.4049 65.4505 91.4434 65.5168 91.466 65.5891C91.4886 65.6614 91.4948 65.7379 91.484 65.8129L90.0731 75.5061C90.0514 75.6324 89.9852 75.7469 89.8866 75.8287C89.788 75.9106 89.6634 75.9546 89.5352 75.9527ZM78.1672 64.0772C79.4562 67.2542 83.1102 74.6129 89.1393 74.9276L90.3878 66.3102C88.439 66.3914 82.4302 66.4523 78.1875 64.0772H78.1672Z" fill="#231F20"/>
<path d="M47.4228 68.0455C28.6757 65.711 11.0756 145.297 21.3068 152.859C37.2626 164.663 85.9623 148.545 85.9623 148.545L81.0903 127.545C81.0903 127.545 45.9409 129.22 45.3014 122.003C44.662 114.786 64.9417 80.9563 62.0997 76.0234C59.2577 71.0905 47.4228 68.0455 47.4228 68.0455Z" fill="#4E4FEB"/>
<path d="M112.88 128.133C112.768 128.137 112.659 128.098 112.574 128.025C112.49 127.951 112.436 127.849 112.423 127.738C110.007 110.767 104.709 82.3468 102.994 80.6822C102.91 80.5949 102.864 80.4787 102.864 80.3579C102.865 80.2371 102.912 80.1212 102.996 80.0344C103.08 79.9477 103.194 79.897 103.315 79.8929C103.436 79.8887 103.554 79.9315 103.643 80.0123C105.846 82.1539 111.51 114.756 113.337 127.606C113.354 127.728 113.322 127.852 113.248 127.951C113.174 128.05 113.063 128.116 112.941 128.133H112.88Z" fill="#231F20"/>
<path d="M94.9451 168.287L62.5869 159.223L122.015 148.048L154.181 161.527L94.9451 168.287Z" fill="white"/>
<path d="M94.9449 168.825C94.9015 168.835 94.8564 168.835 94.813 168.825L62.4548 159.69C62.3202 159.69 62.1911 159.636 62.0959 159.541C62.0007 159.446 61.9473 159.317 61.9473 159.182C61.9473 159.048 62.0007 158.919 62.0959 158.824C62.1911 158.728 62.3202 158.675 62.4548 158.675L121.883 147.51C121.975 147.48 122.075 147.48 122.167 147.51L154.333 160.989C154.435 161.033 154.521 161.109 154.576 161.206C154.631 161.304 154.653 161.416 154.637 161.527C154.622 161.639 154.57 161.743 154.489 161.822C154.408 161.901 154.303 161.951 154.19 161.964L95.0058 168.825H94.9449ZM64.8197 159.355L94.9855 167.81L152.191 161.284L121.954 148.616L64.8197 159.355Z" fill="#231F20"/>
<path d="M75.8527 134.802C82.9577 135.584 89.5451 136.091 96.1527 138.862C99.9286 140.448 103.494 142.494 106.77 144.952C108.438 146.136 109.998 147.468 111.428 148.931C112.565 150.169 112.2 151.377 110.292 150.778C108.073 150.083 105.972 149.057 104.06 147.733C108.631 151.463 112.683 155.788 116.108 160.593C116.493 161.141 116.869 161.923 116.412 162.41C115.955 162.897 114.94 162.41 114.382 161.903L104.344 152.382C107.001 154.675 109.261 157.391 111.033 160.421C111.286 160.857 111.53 161.436 111.266 161.832C110.819 162.573 109.683 162.014 109.074 161.395C106.067 158.359 103.333 155.065 100.903 151.55L106.323 159.67C106.272 159.82 106.191 159.958 106.086 160.076C105.981 160.195 105.854 160.291 105.711 160.36C105.569 160.429 105.414 160.469 105.256 160.478C105.098 160.486 104.94 160.464 104.79 160.411C104.193 160.164 103.677 159.757 103.298 159.233L96.7313 151.692L100.609 157.031C101.218 157.863 101.827 159.061 101.126 159.842C100.426 160.624 98.8425 159.842 97.9493 159.051C94.3565 155.772 90.4111 152.902 86.1854 150.494C84.6528 149.591 83.3434 148.363 81.6484 147.845C79.2124 147.094 76.1674 147.195 73.6299 146.911" fill="white"/>
<path d="M115.925 163.101C115.247 163.024 114.616 162.716 114.139 162.228L110.891 159.183C111.104 159.518 111.317 159.863 111.51 160.198C111.715 160.462 111.846 160.777 111.887 161.109C111.928 161.442 111.878 161.779 111.743 162.086C111.652 162.242 111.526 162.375 111.375 162.474C111.223 162.572 111.05 162.634 110.871 162.654C110.487 162.649 110.108 162.564 109.758 162.405C109.409 162.246 109.096 162.016 108.841 161.73C108.171 161.06 107.521 160.38 106.882 159.7C106.886 159.737 106.886 159.775 106.882 159.812C106.843 160 106.765 160.177 106.653 160.333C106.541 160.489 106.398 160.619 106.232 160.715C106.013 160.846 105.769 160.931 105.516 160.964C105.263 160.997 105.006 160.978 104.76 160.908C104.077 160.64 103.486 160.182 103.055 159.589L101.857 158.218C102.007 158.549 102.059 158.915 102.009 159.275C101.959 159.634 101.808 159.972 101.573 160.248C101.427 160.412 101.249 160.544 101.05 160.637C100.851 160.729 100.635 160.78 100.416 160.786C99.356 160.671 98.3746 160.173 97.6552 159.386C94.0978 156.125 90.1819 153.278 85.9827 150.9C85.4651 150.596 84.9677 150.251 84.4805 149.885C83.5938 149.194 82.6039 148.646 81.5472 148.261C79.7774 147.813 77.9624 147.568 76.1372 147.53C75.2643 147.48 74.4117 147.429 73.6099 147.348C73.4876 147.333 73.3763 147.27 73.3002 147.173C73.2242 147.076 73.1895 146.953 73.2039 146.83C73.2102 146.77 73.2283 146.712 73.2573 146.659C73.2863 146.606 73.3256 146.559 73.3728 146.521C73.42 146.483 73.4742 146.455 73.5324 146.439C73.5905 146.422 73.6513 146.417 73.7114 146.424C74.5031 146.505 75.3354 146.556 76.188 146.607C78.0887 146.643 79.979 146.899 81.8212 147.368C82.9653 147.786 84.0398 148.375 85.0083 149.114C85.4752 149.449 85.9523 149.774 86.4496 150.068C90.7063 152.487 94.6793 155.374 98.2947 158.675C98.8437 159.233 99.5534 159.606 100.325 159.741C100.419 159.738 100.512 159.715 100.597 159.675C100.683 159.635 100.759 159.578 100.822 159.507C101.37 158.909 100.619 157.741 100.274 157.264L96.3966 151.936C96.3603 151.889 96.3337 151.836 96.3181 151.779C96.3026 151.722 96.2985 151.662 96.306 151.604C96.3136 151.545 96.3326 151.489 96.3621 151.438C96.3916 151.387 96.4309 151.342 96.4778 151.306C96.5632 151.223 96.678 151.176 96.7975 151.176C96.9171 151.176 97.0319 151.223 97.1173 151.306L103.694 158.848C104.015 159.297 104.455 159.648 104.963 159.863C105.083 159.896 105.209 159.906 105.333 159.89C105.457 159.874 105.576 159.834 105.684 159.771C105.749 159.738 105.804 159.689 105.846 159.629L100.558 151.682C100.489 151.581 100.464 151.457 100.487 151.337C100.509 151.217 100.579 151.111 100.68 151.042C100.781 150.974 100.905 150.948 101.025 150.971C101.145 150.994 101.251 151.063 101.319 151.164C103.738 154.654 106.455 157.928 109.439 160.949C109.77 161.312 110.221 161.542 110.708 161.598C110.748 161.597 110.787 161.585 110.821 161.564C110.855 161.543 110.883 161.512 110.901 161.477C111.013 161.304 110.901 160.979 110.668 160.533C109.446 158.442 107.984 156.5 106.313 154.747L104.05 152.595C103.976 152.508 103.938 152.397 103.94 152.284C103.943 152.17 103.987 152.061 104.064 151.978C104.142 151.894 104.247 151.842 104.36 151.83C104.473 151.819 104.587 151.849 104.679 151.915C105.481 152.605 106.242 153.326 106.973 154.087L114.728 161.446C115.029 161.789 115.443 162.012 115.895 162.075C115.936 162.077 115.977 162.069 116.014 162.051C116.051 162.033 116.083 162.007 116.108 161.974C116.341 161.73 116.108 161.182 115.773 160.736C112.374 155.966 108.353 151.672 103.816 147.967C103.733 147.888 103.682 147.781 103.673 147.667C103.663 147.553 103.696 147.439 103.765 147.348C103.834 147.256 103.934 147.193 104.047 147.171C104.159 147.148 104.276 147.168 104.374 147.226C106.241 148.525 108.294 149.531 110.464 150.21C111.175 150.433 111.551 150.342 111.622 150.21C111.693 150.078 111.622 149.632 111.124 149.104C109.716 147.659 108.177 146.347 106.526 145.186C103.283 142.753 99.7512 140.731 96.0109 139.167C90.0529 136.68 84.0948 136.041 77.7409 135.361L75.7616 135.137C75.7015 135.131 75.6432 135.113 75.5902 135.084C75.5372 135.055 75.4904 135.016 75.4526 134.968C75.4149 134.921 75.3868 134.867 75.3702 134.809C75.3535 134.751 75.3486 134.69 75.3557 134.63C75.362 134.57 75.3801 134.511 75.4091 134.458C75.4381 134.405 75.4774 134.359 75.5246 134.321C75.5718 134.283 75.626 134.255 75.6841 134.238C75.7423 134.222 75.8031 134.217 75.8632 134.224L77.8932 134.437C84.2775 135.127 90.2965 135.777 96.3763 138.314C100.187 139.893 103.788 141.939 107.095 144.404C108.791 145.611 110.375 146.97 111.825 148.464C112.555 149.256 112.779 150.119 112.413 150.697C112.2 151.022 111.632 151.509 110.201 151.063C109.375 150.81 108.565 150.509 107.775 150.159C111.02 153.196 113.954 156.548 116.534 160.167C117.235 161.182 117.326 162.004 116.808 162.573C116.697 162.695 116.563 162.793 116.413 162.861C116.263 162.929 116.1 162.966 115.935 162.969L115.925 163.101Z" fill="#231F20"/>
<path d="M154.18 161.527L168.989 121.892L108.505 123.089L94.9448 168.287L154.18 161.527Z" fill="white"/>
<path d="M94.9448 168.825C94.8709 168.826 94.7977 168.81 94.7309 168.778C94.6641 168.746 94.6053 168.7 94.5591 168.642C94.5059 168.578 94.4689 168.502 94.4513 168.421C94.4336 168.34 94.4358 168.255 94.4576 168.175L108.018 122.977C108.051 122.875 108.114 122.785 108.199 122.72C108.285 122.655 108.388 122.617 108.495 122.612L168.979 121.414C169.062 121.413 169.144 121.432 169.218 121.469C169.292 121.506 169.356 121.56 169.405 121.627C169.449 121.696 169.478 121.773 169.488 121.854C169.499 121.935 169.491 122.017 169.466 122.094L154.657 161.679C154.624 161.769 154.567 161.848 154.491 161.907C154.416 161.966 154.326 162.003 154.231 162.014L95.0057 168.825H94.9448ZM108.891 123.617L95.6959 167.729L153.855 161.09L168.289 122.439L108.891 123.617Z" fill="#231F20"/>
<path d="M150.953 161.893C150.953 161.893 167.365 175.22 161.6 187.44C155.835 199.661 50.9649 213.627 50.9649 213.627L46.2451 197.651C46.2451 197.651 128.511 155.63 150.953 161.893Z" fill="#231F20"/>
<path d="M50.9652 214.135C50.8558 214.133 50.7497 214.097 50.6622 214.031C50.5746 213.966 50.5102 213.874 50.478 213.769L45.7582 197.793C45.7222 197.681 45.728 197.559 45.7747 197.451C45.8213 197.343 45.9056 197.255 46.012 197.204C46.215 197.093 66.8499 186.588 89.9716 176.965C121.081 164.024 141.635 158.787 151.054 161.405C151.125 161.425 151.191 161.459 151.247 161.507C154.111 163.94 156.655 166.727 158.819 169.799C163.346 176.316 164.442 182.487 161.986 187.663C156.119 199.986 55.3195 213.556 51.0362 214.124L50.9652 214.135ZM46.8443 197.895L51.3306 213.038C58.6589 212.023 155.622 198.646 161.072 187.207C166.432 175.92 151.937 163.364 150.679 162.339C129.343 156.645 52.9952 194.85 46.9052 197.915L46.8443 197.895Z" fill="#231F20"/>
<path d="M40.8149 155.772C40.8149 155.772 122.248 188.698 142.437 197.387L130.703 215.515C130.703 215.515 55.5121 214.043 33.9535 195.154C12.3949 176.265 13.826 144.82 40.8149 155.772Z" fill="#231F20"/>
<path d="M130.703 216.043C130.521 216.043 111.631 215.647 90.357 212.947C61.734 209.303 42.652 203.457 33.6286 195.55C22.3418 185.664 14.435 168.308 20.6468 158.229C22.6768 154.879 28.0969 150.058 41.028 155.295C41.84 155.63 122.695 188.334 142.66 196.91C142.728 196.938 142.789 196.981 142.838 197.035C142.887 197.09 142.924 197.154 142.944 197.225C142.964 197.296 142.97 197.371 142.959 197.445C142.949 197.518 142.923 197.588 142.883 197.651L131.15 215.81C131.102 215.884 131.036 215.945 130.958 215.986C130.879 216.027 130.792 216.046 130.703 216.043ZM30.8171 154.006C26.6454 154.006 23.4482 155.61 21.4994 158.756C16.7086 166.541 20.6975 182.883 34.2884 194.789C54.8015 212.765 125.364 214.896 130.429 215.018L141.696 197.611C120.848 188.679 41.4441 156.564 40.6321 156.239C37.5321 154.878 34.2009 154.12 30.8171 154.006Z" fill="#231F20"/>
<path d="M154.495 145.703C154.582 146.172 154.785 146.611 155.084 146.982L156.667 149.347C156.609 149.103 156.498 148.874 156.343 148.677C156.187 148.48 155.989 148.32 155.765 148.208C155.54 148.096 155.294 148.034 155.043 148.027C154.792 148.021 154.542 148.069 154.312 148.17C153.863 148.413 153.489 148.776 153.233 149.219C152.977 149.661 152.848 150.166 152.861 150.677C152.906 151.698 153.147 152.701 153.571 153.631C154.698 156.554 157.246 160.827 160.93 158.614C163.427 157.112 164.117 151.814 164.472 149.175C165.173 143.978 163.579 137.299 156.9 138.314C157.093 140.873 158.048 143.316 159.641 145.328C158.555 144.272 154.16 142.638 154.495 145.703Z" fill="white"/>
<path d="M158.89 159.69C158.482 159.693 158.077 159.624 157.692 159.487C155.287 158.665 153.785 155.569 153.104 153.793C152.662 152.807 152.41 151.746 152.364 150.667C152.347 150.067 152.501 149.474 152.809 148.958C153.116 148.443 153.563 148.025 154.099 147.754C154.348 147.641 154.618 147.582 154.891 147.581L154.668 147.246C154.321 146.81 154.091 146.293 153.998 145.744C153.917 145.341 153.973 144.923 154.157 144.555C154.341 144.187 154.642 143.891 155.013 143.714C156.053 143.393 157.177 143.476 158.159 143.948C157.184 142.243 156.601 140.343 156.454 138.385C156.447 138.268 156.484 138.153 156.557 138.061C156.63 137.969 156.734 137.908 156.85 137.888C157.866 137.666 158.92 137.694 159.923 137.97C160.925 138.245 161.846 138.761 162.605 139.471C164.99 141.826 165.386 146.069 164.95 149.266C164.554 152.189 163.843 157.437 161.184 159.041C160.496 159.469 159.701 159.695 158.89 159.69ZM154.952 148.525C154.788 148.523 154.626 148.554 154.475 148.617C154.105 148.823 153.8 149.128 153.592 149.497C153.385 149.865 153.283 150.284 153.297 150.707C153.337 151.669 153.565 152.614 153.967 153.489C154.475 154.788 155.875 157.904 158.027 158.635C158.471 158.777 158.942 158.815 159.403 158.746C159.864 158.677 160.303 158.504 160.687 158.239C162.97 156.869 163.66 151.712 163.995 149.236C164.412 146.191 164.077 142.232 161.965 140.101C161.366 139.537 160.646 139.118 159.859 138.877C159.072 138.636 158.241 138.579 157.428 138.71C157.69 141.02 158.593 143.211 160.037 145.034C160.111 145.125 160.147 145.241 160.138 145.358C160.128 145.476 160.074 145.585 159.986 145.663C159.9 145.744 159.785 145.79 159.666 145.79C159.548 145.79 159.433 145.744 159.347 145.663C158.667 144.993 156.424 144.039 155.419 144.526C155.195 144.628 154.911 144.861 154.982 145.653C155.071 146.044 155.244 146.411 155.49 146.729L156.342 147.987C156.566 148.132 156.755 148.325 156.895 148.551C157.035 148.777 157.124 149.032 157.154 149.297C157.165 149.4 157.141 149.504 157.086 149.593C157.031 149.681 156.948 149.748 156.85 149.784C156.753 149.819 156.647 149.819 156.549 149.786C156.451 149.753 156.368 149.688 156.312 149.601L155.683 148.667C155.455 148.557 155.204 148.508 154.952 148.525Z" fill="#231F20"/>
<path d="M131.627 193.631C131.563 193.641 131.498 193.641 131.434 193.631C129.658 192.941 87.6776 176.691 78.2178 170.895C78.1001 170.822 78.016 170.705 77.9837 170.57C77.9515 170.436 77.9735 170.293 78.0452 170.175C78.0806 170.115 78.1275 170.064 78.1831 170.023C78.2388 169.982 78.302 169.953 78.3692 169.937C78.4363 169.921 78.506 169.918 78.5741 169.929C78.6423 169.941 78.7075 169.965 78.7659 170.002C88.1445 175.747 131.373 192.484 131.81 192.647C131.94 192.697 132.045 192.796 132.103 192.924C132.16 193.051 132.164 193.196 132.114 193.327C132.072 193.42 132.003 193.499 131.917 193.553C131.83 193.607 131.729 193.634 131.627 193.631Z" fill="white"/>
<path d="M82.6634 127.352C91.9184 127.352 99.4211 120.249 99.4211 111.487C99.4211 102.726 91.9184 95.623 82.6634 95.623C73.4084 95.623 65.9058 102.726 65.9058 111.487C65.9058 120.249 73.4084 127.352 82.6634 127.352Z" fill="#231F20"/>
<path d="M82.6632 127.849C73.1425 127.849 65.4082 120.511 65.4082 111.488C65.4082 102.464 73.1527 95.1157 82.6632 95.1157C92.1738 95.1157 99.9182 102.464 99.9182 111.488C99.9182 120.511 92.1839 127.849 82.6632 127.849ZM82.6632 96.1307C73.7008 96.1307 66.4232 103.023 66.4232 111.488C66.4232 119.953 73.7109 126.834 82.6632 126.834C91.6155 126.834 98.9032 119.953 98.9032 111.488C98.9032 103.023 91.6257 96.1307 82.6632 96.1307Z" fill="#231F20"/>
<path d="M73.8227 116.644L69.7627 114.269V111.133L73.8227 108.757C75.176 107.979 76.5294 107.188 77.8827 106.382V110.178C77.162 110.625 76.4414 111.061 75.7207 111.478C75.0001 111.894 74.2896 112.32 73.5588 112.777L75.7207 113.975L77.8827 115.182V119.019L73.8227 116.644Z" fill="white"/>
<path d="M79.0298 120.024L83.8104 101.835L86.3073 102.962L81.5064 121.12L79.0298 120.024Z" fill="white"/>
<path d="M91.5649 108.757L95.6249 111.133V114.269L91.5649 116.644L87.5049 119.019V115.182L89.6668 113.975L91.8288 112.777C91.1081 112.32 90.3875 111.884 89.6668 111.478C88.9462 111.072 88.2357 110.625 87.5049 110.178V106.382L91.5649 108.757Z" fill="white"/>
<path d="M47.9202 155.63C47.7856 155.638 47.6533 155.592 47.5525 155.503C47.4516 155.414 47.3904 155.288 47.3823 155.153C47.3742 155.018 47.4199 154.886 47.5094 154.785C47.5989 154.684 47.7247 154.623 47.8593 154.615L72.2193 151.661L76.0865 132.163L44.8752 129.524C44.8006 129.519 44.7281 129.498 44.6631 129.461C44.5981 129.424 44.5422 129.373 44.4997 129.311C44.4541 129.251 44.4231 129.182 44.409 129.108C44.3949 129.034 44.3982 128.957 44.4185 128.885L57.2481 81.119C57.2831 80.9844 57.3701 80.8692 57.49 80.7988C57.6099 80.7283 57.7529 80.7084 57.8875 80.7434C58.0221 80.7784 58.1373 80.8655 58.2077 80.9854C58.2782 81.1053 58.2981 81.2483 58.2631 81.3829L45.5857 128.57L76.7158 131.148C76.7871 131.156 76.8562 131.178 76.919 131.213C76.9818 131.248 77.0369 131.295 77.0812 131.351C77.1237 131.409 77.1537 131.475 77.1695 131.545C77.1852 131.615 77.1862 131.687 77.1725 131.757L73.1125 152.169C73.0905 152.273 73.0367 152.368 72.9586 152.441C72.8805 152.514 72.7818 152.561 72.6761 152.575L47.9202 155.569V155.63Z" fill="#231F20"/>
<path d="M182.062 17.793H131.455V23.0304H182.062V17.793Z" fill="#231F20"/>
<path d="M238.557 17.793H187.949V23.0304H238.557V17.793Z" fill="#DB3F29"/>
<path d="M182.063 26.7656H152.354V32.003H182.063V26.7656Z" fill="#4E4FEB"/>
<path d="M232.904 26.7656H187.949V32.003H232.904V26.7656Z" fill="#9747FF"/>
<path d="M182.062 35.7485H144.619V40.9859H182.062V35.7485Z" fill="#8DC66B"/>
<path d="M209.061 35.7485H187.949V40.9859H209.061V35.7485Z" fill="#007FFF"/>
<path d="M182.072 45H160.229V50.2374H182.072V45Z" fill="#FFA901"/>
<path d="M229.3 44.7212H187.949V49.9586H229.3V44.7212Z" fill="#4E4FEB"/>
<path d="M182.063 53.7036H175.11V58.941H182.063V53.7036Z" fill="#4E4FEB"/>
<path d="M215.73 53.7036H187.949V58.941H215.73V53.7036Z" fill="#305AED"/>
<path d="M181.189 90.6089H134.682V96.6075H181.189V90.6089Z" fill="#4E4FEB"/>
<path d="M217.222 90.6089H188.66V96.6075H217.222V90.6089Z" fill="#007FFF"/>
<path d="M181.179 100.881H143.421V106.88H181.179V100.881Z" fill="#DB3F29"/>
<path d="M230.245 100.881H188.66V106.88H230.245V100.881Z" fill="#305AED"/>
<path d="M181.179 111.163H162.3V117.162H181.179V111.163Z" fill="#007FFF"/>
<path d="M238.111 111.442H188.66V117.441H238.111V111.442Z" fill="#FFA901"/>
<path d="M181.18 121.445H174.105V127.443H181.18V121.445Z" fill="#305AED"/>
<path d="M241.217 121.445H188.66V127.443H241.217V121.445Z" fill="#4E4FEB"/>
<path d="M223.962 131.717H188.66V137.715H223.962V131.717Z" fill="#DB3F29"/>
<path d="M206.554 77.597L202.738 76.0745V74.0445L206.554 72.522L210.371 70.9995V73.4152C209.68 73.7096 209 73.9836 208.341 74.2475C207.681 74.5114 206.98 74.7855 206.311 75.0798L208.341 75.8512L210.371 76.6226V79.0789L206.554 77.597Z" fill="#445565"/>
<path d="M211.498 79.7588L216.024 68.1167L218.4 68.8272L213.842 80.52L211.498 79.7588Z" fill="#445565"/>
<path d="M223.333 72.5523C224.601 73.0598 225.88 73.5673 227.149 74.0748V76.1048L223.333 77.6273L219.516 79.1498V76.663L221.546 75.8916L223.576 75.1202C222.886 74.8259 222.206 74.5518 221.546 74.2879C220.886 74.024 220.186 73.75 219.516 73.4556V71.0298L223.333 72.5523Z" fill="#445565"/>
<path d="M132.784 5.30869C132.783 5.0734 132.835 4.84086 132.937 4.62864C133.025 4.41244 133.16 4.21839 133.332 4.06023C133.501 3.90403 133.697 3.78017 133.911 3.69484C134.14 3.601 134.384 3.55273 134.632 3.55273C134.865 3.55488 135.097 3.60317 135.312 3.69484C135.521 3.78261 135.713 3.90627 135.88 4.06023C136.042 4.22437 136.173 4.41706 136.266 4.62864C136.36 4.84308 136.408 5.07462 136.408 5.30869C136.408 5.54602 136.36 5.78087 136.266 5.99889C136.17 6.19985 136.04 6.38206 135.88 6.53684C135.54 6.85383 135.096 7.03452 134.632 7.04434C134.384 7.04435 134.14 6.99608 133.911 6.90224C133.695 6.82078 133.499 6.69648 133.332 6.53684C133.163 6.38792 133.028 6.20447 132.937 5.99889C132.835 5.78312 132.783 5.54725 132.784 5.30869ZM132.784 11.2566C132.789 11.0242 132.84 10.795 132.934 10.5825C133.028 10.3699 133.164 10.1781 133.332 10.0183C133.498 9.85544 133.695 9.7277 133.911 9.64273C134.14 9.55237 134.385 9.50755 134.632 9.51079C134.865 9.50945 135.096 9.55429 135.312 9.64273C135.523 9.7303 135.716 9.8578 135.88 10.0183C136.042 10.1787 136.173 10.368 136.266 10.5765C136.359 10.7928 136.408 11.026 136.408 11.2617C136.408 11.4973 136.359 11.7305 136.266 11.9468C136.173 12.1523 136.042 12.3383 135.88 12.4949C135.713 12.6489 135.521 12.7725 135.312 12.8603C135.096 12.9487 134.865 12.9936 134.632 12.9922C134.385 12.9955 134.14 12.9507 133.911 12.8603C133.697 12.7749 133.501 12.6511 133.332 12.4949C133.161 12.3442 133.026 12.1568 132.937 11.9468C132.834 11.7314 132.782 11.4953 132.784 11.2566Z" fill="#E36060"/>
<path d="M192.05 176.092C192.451 176.113 192.848 175.999 193.176 175.767C193.461 175.554 193.593 175.108 193.593 174.417V171.271C193.592 170.75 193.66 170.231 193.796 169.728C193.922 169.259 194.135 168.819 194.425 168.429C194.72 168.054 195.095 167.749 195.521 167.536C196.029 167.299 196.585 167.184 197.145 167.201H199.429V170.469H198.627C198.444 170.451 198.259 170.483 198.093 170.562C197.927 170.64 197.785 170.763 197.683 170.916C197.508 171.225 197.42 171.576 197.429 171.931V175.138C197.441 175.544 197.368 175.949 197.216 176.326C197.094 176.617 196.922 176.885 196.709 177.117C196.522 177.318 196.298 177.48 196.049 177.594C195.85 177.699 195.633 177.765 195.409 177.787C195.63 177.828 195.845 177.896 196.049 177.99C196.297 178.097 196.521 178.252 196.709 178.447C197.197 178.988 197.456 179.698 197.429 180.426V183.644C197.417 183.999 197.505 184.351 197.683 184.659C197.784 184.814 197.925 184.938 198.091 185.019C198.258 185.099 198.443 185.133 198.627 185.116H199.429V188.384H197.145C196.585 188.4 196.029 188.286 195.521 188.049C195.095 187.835 194.72 187.53 194.425 187.156C194.137 186.765 193.924 186.324 193.796 185.856C193.661 185.35 193.592 184.828 193.593 184.304V181.157C193.628 180.917 193.609 180.672 193.537 180.44C193.465 180.208 193.342 179.995 193.176 179.817C192.848 179.586 192.451 179.472 192.05 179.492V176.092Z" fill="#E6E7E8"/>
<path d="M227.108 179.472C226.703 179.451 226.304 179.566 225.971 179.797C225.808 179.976 225.686 180.189 225.614 180.421C225.542 180.652 225.522 180.897 225.555 181.137V184.283C225.555 184.808 225.487 185.33 225.352 185.836C225.228 186.306 225.014 186.747 224.723 187.135C224.432 187.515 224.057 187.821 223.626 188.029C223.119 188.265 222.563 188.38 222.002 188.364H219.719V185.065H220.531C220.713 185.08 220.896 185.045 221.061 184.965C221.225 184.885 221.365 184.761 221.465 184.608C221.643 184.3 221.731 183.949 221.718 183.593V180.375C221.708 179.973 221.781 179.572 221.931 179.198C222.056 178.902 222.231 178.631 222.449 178.396C222.633 178.203 222.854 178.047 223.099 177.939C223.307 177.847 223.525 177.779 223.748 177.736C223.522 177.713 223.301 177.647 223.099 177.544C222.852 177.43 222.632 177.267 222.449 177.067C222.229 176.837 222.053 176.569 221.931 176.275C221.779 175.898 221.707 175.494 221.718 175.087V171.87C221.728 171.515 221.64 171.164 221.465 170.855C221.363 170.703 221.223 170.582 221.059 170.504C220.895 170.425 220.712 170.392 220.531 170.408H219.719V167.201H222.002C222.563 167.184 223.119 167.299 223.626 167.536C224.057 167.743 224.432 168.049 224.723 168.429C225.016 168.816 225.23 169.258 225.352 169.728C225.488 170.231 225.556 170.75 225.555 171.271V174.417C225.521 174.659 225.541 174.905 225.613 175.139C225.685 175.372 225.807 175.587 225.971 175.767C226.304 175.999 226.703 176.113 227.108 176.092V179.472Z" fill="#E6E7E8"/>
</svg>
