<svg xmlns="http://www.w3.org/2000/svg" xmlns:xlink="http://www.w3.org/1999/xlink" width="500" zoomAndPan="magnify" viewBox="0 0 375 374.999991" height="500" preserveAspectRatio="xMidYMid meet" version="1.0"><defs><g/></defs><rect x="-37.5" width="450" fill="#ffffff" y="-37.499999" height="449.999989" fill-opacity="1"/><rect x="-37.5" width="450" fill="#ffffff" y="-37.499999" height="449.999989" fill-opacity="1"/><rect x="-37.5" width="450" fill="#557153" y="-37.499999" height="449.999989" fill-opacity="1"/><g fill="#e6e5a3" fill-opacity="1"><g transform="translate(19.296352, 263.467031)"><g><path d="M 223.203125 -30 L 223.453125 -38.390625 C 223.609375 -43.660156 224.097656 -49.421875 224.921875 -55.671875 L 226.90625 -70.25 C 227.3125 -73.695312 227.722656 -76.820312 228.140625 -79.625 C 220.316406 -71.0625 214.019531 -64.394531 209.25 -59.625 L 195.046875 -45.796875 C 163.285156 -16.085938 144.359375 -1.234375 138.265625 -1.234375 C 129.296875 -1.234375 119.875 -3.164062 110 -7.03125 C 104.644531 -9.175781 101.597656 -11.398438 100.859375 -13.703125 C 99.703125 -16.585938 99.125 -20.519531 99.125 -25.5 C 99.125 -30.476562 99.289062 -35.0625 99.625 -39.25 C 99.957031 -43.445312 100.367188 -47.625 100.859375 -51.78125 C 101.347656 -55.9375 101.859375 -59.925781 102.390625 -63.75 C 102.929688 -67.582031 103.367188 -70.941406 103.703125 -73.828125 C 104.523438 -80.328125 104.6875 -83.578125 104.1875 -83.578125 L 58.265625 -27.15625 C 36.617188 -1.726562 24.316406 12.34375 21.359375 15.0625 C 15.015625 20.820312 8.019531 23.703125 0.375 23.703125 C -3.414062 23.703125 -6.546875 22.753906 -9.015625 20.859375 C -11.484375 18.972656 -12.71875 16.628906 -12.71875 13.828125 C -12.71875 8.234375 -10.367188 2.390625 -5.671875 -3.703125 L 103.953125 -143.078125 L 116.78125 -158.515625 C 132.09375 -176.535156 142.132812 -185.546875 146.90625 -185.546875 C 153.570312 -185.546875 159.910156 -183.859375 165.921875 -180.484375 C 171.265625 -177.523438 174.304688 -174.644531 175.046875 -171.84375 C 175.378906 -170.769531 174.679688 -165.789062 172.953125 -156.90625 L 168.640625 -133.578125 C 163.773438 -107.566406 161.34375 -90.796875 161.34375 -83.265625 C 161.34375 -75.734375 162.207031 -71.96875 163.9375 -71.96875 C 169.539062 -71.96875 180.320312 -81.144531 196.28125 -99.5 L 236.28125 -147.40625 C 245.09375 -157.519531 250.9375 -163.28125 253.8125 -164.6875 C 254.632812 -165.09375 255.828125 -165.296875 257.390625 -165.296875 C 258.953125 -165.296875 260.703125 -165.085938 262.640625 -164.671875 C 264.578125 -164.265625 266.550781 -163.734375 268.5625 -163.078125 C 270.582031 -162.421875 272.535156 -161.640625 274.421875 -160.734375 C 276.316406 -159.828125 278.007812 -158.878906 279.5 -157.890625 C 282.707031 -155.753906 284.289062 -154.003906 284.25 -152.640625 C 284.207031 -151.285156 283.851562 -148.363281 283.1875 -143.875 C 282.53125 -139.394531 281.710938 -133.945312 280.734375 -127.53125 C 273.898438 -84.976562 270.335938 -60.285156 270.046875 -53.453125 C 269.765625 -46.617188 270.460938 -42.335938 272.140625 -40.609375 C 273.828125 -38.878906 276.316406 -38.015625 279.609375 -38.015625 C 285.617188 -38.015625 294.34375 -41.597656 305.78125 -48.765625 C 313.519531 -53.617188 319.921875 -56.046875 324.984375 -56.046875 C 330.046875 -56.046875 332.578125 -53.617188 332.578125 -48.765625 C 332.578125 -43.742188 329.863281 -37.65625 324.4375 -30.5 C 316.613281 -20.125 304.925781 -10.738281 289.375 -2.34375 C 276.28125 4.644531 263.851562 8.140625 252.09375 8.140625 C 232.832031 8.140625 223.203125 -4.570312 223.203125 -30 Z M 223.203125 -30 "/></g></g></g></svg>