<svg xmlns="http://www.w3.org/2000/svg" xmlns:xlink="http://www.w3.org/1999/xlink" width="500" zoomAndPan="magnify" viewBox="0 0 375 225" height="300" preserveAspectRatio="xMidYMid meet" version="1.0"><defs><g/></defs><g fill="#2b2b2b" fill-opacity="1"><g transform="translate(30.339267, 154.44927)"><g><path d="M 149.25 -20.0625 L 149.421875 -25.671875 C 149.523438 -29.191406 149.851562 -33.046875 150.40625 -37.234375 L 151.734375 -46.96875 C 152.003906 -49.28125 152.273438 -51.375 152.546875 -53.25 C 147.316406 -47.519531 143.109375 -43.0625 139.921875 -39.875 L 130.421875 -30.625 C 109.179688 -10.757812 96.523438 -0.828125 92.453125 -0.828125 C 86.453125 -0.828125 80.148438 -2.117188 73.546875 -4.703125 C 69.972656 -6.140625 67.9375 -7.625 67.4375 -9.15625 C 66.664062 -11.082031 66.28125 -13.710938 66.28125 -17.046875 C 66.28125 -20.378906 66.390625 -23.445312 66.609375 -26.25 C 66.835938 -29.0625 67.113281 -31.851562 67.4375 -34.625 C 67.769531 -37.40625 68.113281 -40.070312 68.46875 -42.625 C 68.832031 -45.1875 69.125 -47.429688 69.34375 -49.359375 C 69.894531 -53.710938 70.003906 -55.890625 69.671875 -55.890625 L 38.96875 -18.15625 C 24.488281 -1.15625 16.257812 8.253906 14.28125 10.078125 C 10.039062 13.921875 5.363281 15.84375 0.25 15.84375 C -2.28125 15.84375 -4.367188 15.207031 -6.015625 13.9375 C -7.671875 12.675781 -8.5 11.113281 -8.5 9.25 C -8.5 5.5 -6.929688 1.59375 -3.796875 -2.46875 L 69.5 -95.671875 L 78.09375 -106 C 88.332031 -118.050781 95.046875 -124.078125 98.234375 -124.078125 C 102.691406 -124.078125 106.929688 -122.945312 110.953125 -120.6875 C 114.523438 -118.707031 116.5625 -116.78125 117.0625 -114.90625 C 117.28125 -114.195312 116.8125 -110.867188 115.65625 -104.921875 L 112.765625 -89.3125 C 109.515625 -71.925781 107.890625 -60.710938 107.890625 -55.671875 C 107.890625 -50.640625 108.46875 -48.125 109.625 -48.125 C 113.363281 -48.125 120.570312 -54.257812 131.25 -66.53125 L 158 -98.5625 C 163.882812 -105.332031 167.789062 -109.1875 169.71875 -110.125 C 170.269531 -110.394531 171.066406 -110.53125 172.109375 -110.53125 C 173.160156 -110.53125 174.332031 -110.390625 175.625 -110.109375 C 176.914062 -109.835938 178.234375 -109.484375 179.578125 -109.046875 C 180.929688 -108.609375 182.238281 -108.085938 183.5 -107.484375 C 184.769531 -106.878906 185.898438 -106.242188 186.890625 -105.578125 C 189.035156 -104.148438 190.09375 -102.984375 190.0625 -102.078125 C 190.039062 -101.171875 189.804688 -99.21875 189.359375 -96.21875 C 188.921875 -93.21875 188.375 -89.570312 187.71875 -85.28125 C 183.144531 -56.820312 180.765625 -40.304688 180.578125 -35.734375 C 180.390625 -31.171875 180.859375 -28.3125 181.984375 -27.15625 C 183.109375 -26 184.769531 -25.421875 186.96875 -25.421875 C 190.988281 -25.421875 196.820312 -27.816406 204.46875 -32.609375 C 209.644531 -35.859375 213.925781 -37.484375 217.3125 -37.484375 C 220.695312 -37.484375 222.390625 -35.859375 222.390625 -32.609375 C 222.390625 -29.253906 220.570312 -25.179688 216.9375 -20.390625 C 211.707031 -13.453125 203.894531 -7.175781 193.5 -1.5625 C 184.75 3.113281 176.4375 5.453125 168.5625 5.453125 C 155.6875 5.453125 149.25 -3.050781 149.25 -20.0625 Z M 149.25 -20.0625 "/></g></g></g><g fill="#2b2b2b" fill-opacity="1"><g transform="translate(260.363617, 154.44927)"><g><path d="M 50.359375 -22.125 C 51.453125 -20.632812 52 -18.609375 52 -16.046875 C 52 -13.492188 51.203125 -11.070312 49.609375 -8.78125 C 48.015625 -6.5 45.953125 -4.5625 43.421875 -2.96875 C 38.242188 0.382812 32.382812 2.0625 25.84375 2.0625 C 19.507812 2.0625 15.019531 0.4375 12.375 -2.8125 C 10.945312 -4.625 10.234375 -6.769531 10.234375 -9.25 C 10.234375 -14.144531 12.738281 -18.488281 17.75 -22.28125 C 22.757812 -26.082031 28.742188 -27.984375 35.703125 -27.984375 C 42.660156 -27.984375 47.546875 -26.03125 50.359375 -22.125 Z M 50.359375 -22.125 "/></g></g></g><g fill="#2b2b2b" fill-opacity="1"><g transform="translate(17.048459, 218.694051)"><g><path d="M 12.503906 -12.671875 L 8.046875 -2.746094 L 3.613281 -12.671875 L 1.394531 -12.671875 L 1.394531 0 L 3.464844 0 L 3.464844 -8.722656 L 7.351562 0 L 8.722656 0 L 12.652344 -8.742188 L 12.652344 0 L 14.699219 0 L 14.699219 -12.671875 Z M 12.503906 -12.671875 "/></g></g></g><g fill="#2b2b2b" fill-opacity="1"><g transform="translate(46.661277, 218.694051)"><g><path d="M 7.414062 0.167969 C 11.003906 0.167969 13.917969 -2.746094 13.917969 -6.335938 C 13.917969 -9.925781 11.003906 -12.839844 7.414062 -12.839844 C 3.824219 -12.839844 0.90625 -9.925781 0.90625 -6.335938 C 0.90625 -2.746094 3.824219 0.167969 7.414062 0.167969 Z M 7.414062 -1.878906 C 4.921875 -1.878906 2.957031 -3.824219 2.957031 -6.335938 C 2.957031 -8.847656 4.921875 -10.792969 7.414062 -10.792969 C 9.925781 -10.792969 11.871094 -8.847656 11.871094 -6.335938 C 11.871094 -3.824219 9.925781 -1.878906 7.414062 -1.878906 Z M 7.414062 -1.878906 "/></g></g></g><g fill="#2b2b2b" fill-opacity="1"><g transform="translate(75.00735, 218.694051)"><g><path d="M 9.523438 -12.671875 L 9.523438 -7.308594 L 3.464844 -7.308594 L 3.464844 -12.671875 L 1.394531 -12.671875 L 1.394531 0 L 3.464844 0 L 3.464844 -5.386719 L 9.523438 -5.386719 L 9.523438 0 L 11.59375 0 L 11.59375 -12.671875 Z M 9.523438 -12.671875 "/></g></g></g><g fill="#2b2b2b" fill-opacity="1"><g transform="translate(101.51664, 218.694051)"><g><path d="M 9.082031 0 L 11.320312 0 L 6.738281 -12.671875 L 4.433594 -12.671875 L -0.148438 0 L 2.089844 0 L 3 -2.683594 L 8.171875 -2.683594 Z M 3.613281 -4.5 L 5.597656 -10.414062 L 7.582031 -4.5 Z M 3.613281 -4.5 "/></g></g></g><g fill="#2b2b2b" fill-opacity="1"><g transform="translate(126.210252, 218.694051)"><g><path d="M 12.503906 -12.671875 L 8.046875 -2.746094 L 3.613281 -12.671875 L 1.394531 -12.671875 L 1.394531 0 L 3.464844 0 L 3.464844 -8.722656 L 7.351562 0 L 8.722656 0 L 12.652344 -8.742188 L 12.652344 0 L 14.699219 0 L 14.699219 -12.671875 Z M 12.503906 -12.671875 "/></g></g></g><g fill="#2b2b2b" fill-opacity="1"><g transform="translate(155.82306, 218.694051)"><g><path d="M 12.503906 -12.671875 L 8.046875 -2.746094 L 3.613281 -12.671875 L 1.394531 -12.671875 L 1.394531 0 L 3.464844 0 L 3.464844 -8.722656 L 7.351562 0 L 8.722656 0 L 12.652344 -8.742188 L 12.652344 0 L 14.699219 0 L 14.699219 -12.671875 Z M 12.503906 -12.671875 "/></g></g></g><g fill="#2b2b2b" fill-opacity="1"><g transform="translate(185.435869, 218.694051)"><g><path d="M 9.082031 0 L 11.320312 0 L 6.738281 -12.671875 L 4.433594 -12.671875 L -0.148438 0 L 2.089844 0 L 3 -2.683594 L 8.171875 -2.683594 Z M 3.613281 -4.5 L 5.597656 -10.414062 L 7.582031 -4.5 Z M 3.613281 -4.5 "/></g></g></g><g fill="#2b2b2b" fill-opacity="1"><g transform="translate(210.129489, 218.694051)"><g><path d="M 1.394531 0 L 5.195312 0 C 8.703125 0 11.53125 -2.828125 11.53125 -6.335938 C 11.53125 -9.84375 8.703125 -12.671875 5.195312 -12.671875 L 1.394531 -12.671875 Z M 3.441406 -1.921875 L 3.441406 -10.75 L 5.195312 -10.75 C 7.601562 -10.75 9.484375 -8.871094 9.484375 -6.335938 C 9.484375 -3.800781 7.601562 -1.921875 5.195312 -1.921875 Z M 3.441406 -1.921875 "/></g></g></g><g fill="#2b2b2b" fill-opacity="1"><g transform="translate(236.089853, 218.694051)"><g/></g></g><g fill="#2b2b2b" fill-opacity="1"><g transform="translate(254.681962, 218.694051)"><g><path d="M 8.808594 -12.671875 L 0.0429688 -12.671875 L 0.0429688 -10.75 L 3.398438 -10.75 L 3.398438 0 L 5.449219 0 L 5.449219 -10.75 L 8.808594 -10.75 Z M 8.808594 -12.671875 "/></g></g></g><g fill="#2b2b2b" fill-opacity="1"><g transform="translate(277.053212, 218.694051)"><g><path d="M 9.082031 0 L 11.320312 0 L 6.738281 -12.671875 L 4.433594 -12.671875 L -0.148438 0 L 2.089844 0 L 3 -2.683594 L 8.171875 -2.683594 Z M 3.613281 -4.5 L 5.597656 -10.414062 L 7.582031 -4.5 Z M 3.613281 -4.5 "/></g></g></g><g fill="#2b2b2b" fill-opacity="1"><g transform="translate(301.746832, 218.694051)"><g><path d="M 3.464844 -1.921875 L 3.464844 -12.671875 L 1.394531 -12.671875 L 1.394531 0 L 7.921875 0 L 7.921875 -1.921875 Z M 3.464844 -1.921875 "/></g></g></g><g fill="#2b2b2b" fill-opacity="1"><g transform="translate(323.294698, 218.694051)"><g><path d="M 1.5 0 L 3.570312 0 L 3.570312 -12.671875 L 1.5 -12.671875 Z M 1.5 0 "/></g></g></g><g fill="#2b2b2b" fill-opacity="1"><g transform="translate(341.865717, 218.694051)"><g><path d="M 12.503906 -12.671875 L 8.046875 -2.746094 L 3.613281 -12.671875 L 1.394531 -12.671875 L 1.394531 0 L 3.464844 0 L 3.464844 -8.722656 L 7.351562 0 L 8.722656 0 L 12.652344 -8.742188 L 12.652344 0 L 14.699219 0 L 14.699219 -12.671875 Z M 12.503906 -12.671875 "/></g></g></g></svg>